<svg width="30" height="30" viewBox="0 0 30 30" fill="none" xmlns="http://www.w3.org/2000/svg">
<path d="M16.317 14.9219C17.0456 16.0007 16.273 17.4561 14.9707 17.4561L16.317 14.9219Z" fill="white"/>
<path d="M16.317 14.9219C17.0456 16.0007 16.273 17.4561 14.9707 17.4561" stroke="#CECECE" stroke-width="0.879943" stroke-miterlimit="10" stroke-linecap="round" stroke-linejoin="round"/>
<path d="M18.0275 19.7493C16.338 21.4388 13.6014 21.4388 11.9119 19.7493" stroke="#CECECE" stroke-width="0.879943" stroke-miterlimit="10" stroke-linecap="round" stroke-linejoin="round"/>
<path d="M11.0154 13.2466C11.5053 13.2466 11.9024 12.8495 11.9024 12.3596C11.9024 11.8698 11.5053 11.4727 11.0154 11.4727C10.5255 11.4727 10.1284 11.8698 10.1284 12.3596C10.1284 12.8495 10.5255 13.2466 11.0154 13.2466Z" fill="#CECECE"/>
<path d="M18.9234 13.2466C19.4132 13.2466 19.8103 12.8495 19.8103 12.3596C19.8103 11.8698 19.4132 11.4727 18.9234 11.4727C18.4335 11.4727 18.0364 11.8698 18.0364 12.3596C18.0364 12.8495 18.4335 13.2466 18.9234 13.2466Z" fill="#CECECE"/>
<path d="M14.9696 29.339C22.9056 29.339 29.339 22.9056 29.339 14.9696C29.339 7.03353 22.9056 0.600098 14.9696 0.600098C7.03353 0.600098 0.600098 7.03353 0.600098 14.9696C0.600098 22.9056 7.03353 29.339 14.9696 29.339Z" stroke="#CECECE" stroke-width="0.879943" stroke-miterlimit="10" stroke-linecap="round" stroke-linejoin="round"/>
</svg>
