<svg width="48" height="48" viewBox="0 0 48 48" fill="none" xmlns="http://www.w3.org/2000/svg">
<path d="M25.317 23.9219C26.0456 25.0007 25.273 26.4561 23.9707 26.4561L25.317 23.9219Z" fill="white"/>
<path d="M25.317 23.9219C26.0456 25.0007 25.273 26.4561 23.9707 26.4561" stroke="#0055B8" stroke-width="0.879943" stroke-miterlimit="10" stroke-linecap="round" stroke-linejoin="round"/>
<path d="M27.0273 28.7493C25.3379 30.4388 22.6012 30.4388 20.9117 28.7493" stroke="#0055B8" stroke-width="0.879943" stroke-miterlimit="10" stroke-linecap="round" stroke-linejoin="round"/>
<path d="M20.0154 22.2466C20.5053 22.2466 20.9024 21.8495 20.9024 21.3596C20.9024 20.8698 20.5053 20.4727 20.0154 20.4727C19.5255 20.4727 19.1284 20.8698 19.1284 21.3596C19.1284 21.8495 19.5255 22.2466 20.0154 22.2466Z" fill="#0055B8"/>
<path d="M27.9232 22.2466C28.4131 22.2466 28.8102 21.8495 28.8102 21.3596C28.8102 20.8698 28.4131 20.4727 27.9232 20.4727C27.4334 20.4727 27.0363 20.8698 27.0363 21.3596C27.0363 21.8495 27.4334 22.2466 27.9232 22.2466Z" fill="#0055B8"/>
<path d="M23.9694 38.339C31.9055 38.339 38.3389 31.9056 38.3389 23.9696C38.3389 16.0335 31.9055 9.6001 23.9694 9.6001C16.0334 9.6001 9.59998 16.0335 9.59998 23.9696C9.59998 31.9056 16.0334 38.339 23.9694 38.339Z" stroke="#0055B8" stroke-width="0.879943" stroke-miterlimit="10" stroke-linecap="round" stroke-linejoin="round"/>
</svg>
