<svg width="30" height="30" viewBox="0 0 30 30" fill="none" xmlns="http://www.w3.org/2000/svg">
<path d="M14.8704 29.436C22.8065 29.436 29.2399 23.0025 29.2399 15.0665C29.2399 7.13045 22.8065 0.697021 14.8704 0.697021C6.93441 0.697021 0.500977 7.13045 0.500977 15.0665C0.500977 23.0025 6.93441 29.436 14.8704 29.436Z" stroke="#CECECE" stroke-width="0.879943" stroke-miterlimit="10"/>
<path d="M15.4032 15.019C16.1318 16.0979 15.3592 17.5533 14.0569 17.5533L15.4032 15.019Z" fill="white"/>
<path d="M15.4032 15.019C16.1318 16.0979 15.3592 17.5533 14.0569 17.5533" stroke="#CECECE" stroke-width="0.879943" stroke-miterlimit="10" stroke-linecap="round" stroke-linejoin="round"/>
<path d="M17.9291 19.8464C16.2396 21.5359 13.503 21.5359 11.8135 19.8464" stroke="#CECECE" stroke-width="0.879943" stroke-miterlimit="10" stroke-linecap="round" stroke-linejoin="round"/>
<path d="M11.7165 12.4566C11.7165 12.8978 11.3588 13.2556 10.9175 13.2556C10.4762 13.2556 10.1185 12.8978 10.1185 12.4566C10.1185 12.0153 10.4762 11.6576 10.9175 11.6576C11.3588 11.6576 11.7165 12.0153 11.7165 12.4566Z" fill="#CECECE" stroke="#CECECE" stroke-width="0.175989"/>
<path d="M19.6242 12.4566C19.6242 12.8978 19.2665 13.2556 18.8252 13.2556C18.3839 13.2556 18.0262 12.8978 18.0262 12.4566C18.0262 12.0153 18.3839 11.6576 18.8252 11.6576C19.2665 11.6576 19.6242 12.0153 19.6242 12.4566Z" fill="#CECECE" stroke="#CECECE" stroke-width="0.175989"/>
<path opacity="0.3" d="M14.8706 29.3481C8.22673 29.3481 2.64398 24.8108 1.04907 18.6656H28.6938C27.0972 24.8108 21.5144 29.3481 14.8706 29.3481Z" fill="#CECECE" stroke="#CECECE" stroke-width="0.175989"/>
</svg>
