<svg width="48" height="48" viewBox="0 0 48 48" fill="none" xmlns="http://www.w3.org/2000/svg">
<path d="M25.317 23.9219C26.0456 25.0007 25.273 26.4561 23.9707 26.4561L25.317 23.9219Z" fill="white"/>
<path d="M25.317 23.9219C26.0456 25.0007 25.273 26.4561 23.9707 26.4561" stroke="#CECECE" stroke-width="0.879943" stroke-miterlimit="10" stroke-linecap="round" stroke-linejoin="round"/>
<path d="M27.0275 28.7493C25.338 30.4388 22.6014 30.4388 20.9119 28.7493" stroke="#CECECE" stroke-width="0.879943" stroke-miterlimit="10" stroke-linecap="round" stroke-linejoin="round"/>
<path d="M20.0154 22.2466C20.5053 22.2466 20.9024 21.8495 20.9024 21.3596C20.9024 20.8698 20.5053 20.4727 20.0154 20.4727C19.5255 20.4727 19.1284 20.8698 19.1284 21.3596C19.1284 21.8495 19.5255 22.2466 20.0154 22.2466Z" fill="#CECECE"/>
<path d="M27.9234 22.2466C28.4132 22.2466 28.8103 21.8495 28.8103 21.3596C28.8103 20.8698 28.4132 20.4727 27.9234 20.4727C27.4335 20.4727 27.0364 20.8698 27.0364 21.3596C27.0364 21.8495 27.4335 22.2466 27.9234 22.2466Z" fill="#CECECE"/>
<path d="M23.9696 38.339C31.9056 38.339 38.339 31.9056 38.339 23.9696C38.339 16.0335 31.9056 9.6001 23.9696 9.6001C16.0335 9.6001 9.6001 16.0335 9.6001 23.9696C9.6001 31.9056 16.0335 38.339 23.9696 38.339Z" stroke="#CECECE" stroke-width="0.879943" stroke-miterlimit="10" stroke-linecap="round" stroke-linejoin="round"/>
</svg>
