<svg width="48" height="48" viewBox="0 0 48 48" fill="none" xmlns="http://www.w3.org/2000/svg">
<path opacity="0.3" d="M37.8687 27.5776H9.99915C11.5654 33.8164 17.2094 38.4361 23.9339 38.4361C30.6585 38.4361 36.3024 33.8164 37.8687 27.5776Z" fill="#0055B8"/>
<path d="M23.9333 38.436C31.8694 38.436 38.3028 32.0025 38.3028 24.0665C38.3028 16.1305 31.8694 9.69702 23.9333 9.69702C15.9973 9.69702 9.56384 16.1305 9.56384 24.0665C9.56384 32.0025 15.9973 38.436 23.9333 38.436Z" stroke="#0055B8" stroke-width="0.879943" stroke-miterlimit="10"/>
<path d="M24.4672 24.019C25.1958 25.0979 24.4232 26.5533 23.1208 26.5533L24.4672 24.019Z" fill="white"/>
<path d="M24.4672 24.019C25.1958 25.0979 24.4232 26.5533 23.1208 26.5533" stroke="#0055B8" stroke-width="0.879943" stroke-miterlimit="10" stroke-linecap="round" stroke-linejoin="round"/>
<path d="M26.9923 28.8464C25.3028 30.5359 22.5662 30.5359 20.8767 28.8464" stroke="#0055B8" stroke-width="0.879943" stroke-miterlimit="10" stroke-linecap="round" stroke-linejoin="round"/>
<path d="M19.9815 22.3435C20.4713 22.3435 20.8685 21.9464 20.8685 21.4566C20.8685 20.9667 20.4713 20.5696 19.9815 20.5696C19.4916 20.5696 19.0945 20.9667 19.0945 21.4566C19.0945 21.9464 19.4916 22.3435 19.9815 22.3435Z" fill="#0055B8"/>
<path d="M27.8887 22.3435C28.3786 22.3435 28.7757 21.9464 28.7757 21.4566C28.7757 20.9667 28.3786 20.5696 27.8887 20.5696C27.3988 20.5696 27.0017 20.9667 27.0017 21.4566C27.0017 21.9464 27.3988 22.3435 27.8887 22.3435Z" fill="#0055B8"/>
<path d="M28.4346 32.3452C28.0703 32.3452 27.7747 32.6409 27.7747 33.0052C27.7747 33.3695 28.0703 33.6651 28.4346 33.6651C28.7989 33.6651 29.0946 33.3695 29.0946 33.0052C29.0946 32.6409 28.7989 32.3452 28.4346 32.3452Z" fill="#0055B8"/>
<path d="M25.4341 36.8101C25.0698 36.8101 24.7742 37.1057 24.7742 37.47C24.7742 37.8343 25.0698 38.13 25.4341 38.13C25.7984 38.13 26.0941 37.8343 26.0941 37.47C26.0958 37.1075 25.8002 36.8101 25.4341 36.8101Z" fill="#0055B8"/>
<path d="M25.4341 32.3452C25.0698 32.3452 24.7742 32.6409 24.7742 33.0052C24.7742 33.3695 25.0698 33.6651 25.4341 33.6651C25.7984 33.6651 26.0941 33.3695 26.0941 33.0052C26.0941 32.6409 25.8002 32.3452 25.4341 32.3452Z" fill="#0055B8"/>
<path d="M26.9332 34.5786C26.5689 34.5786 26.2732 34.8743 26.2732 35.2386C26.2732 35.6029 26.5689 35.8985 26.9332 35.8985C27.2974 35.8985 27.5931 35.6029 27.5931 35.2386C27.5949 34.8743 27.2992 34.5786 26.9332 34.5786Z" fill="#0055B8"/>
<path d="M34.4324 33.6668C34.7969 33.6668 35.0924 33.3714 35.0924 33.0069C35.0924 32.6424 34.7969 32.3469 34.4324 32.3469C34.0679 32.3469 33.7725 32.6424 33.7725 33.0069C33.7725 33.3714 34.0679 33.6668 34.4324 33.6668Z" fill="#0055B8"/>
<path d="M34.4324 27.8804C34.0681 27.8804 33.7725 28.176 33.7725 28.5403C33.7725 28.9046 34.0681 29.2003 34.4324 29.2003C34.7967 29.2003 35.0924 28.9046 35.0924 28.5403C35.0941 28.176 34.7967 27.8804 34.4324 27.8804Z" fill="#0055B8"/>
<path d="M32.9332 30.1138C32.5689 30.1138 32.2732 30.4094 32.2732 30.7737C32.2732 31.138 32.5689 31.4337 32.9332 31.4337C33.2974 31.4337 33.5931 31.138 33.5931 30.7737C33.5931 30.4094 33.2974 30.1138 32.9332 30.1138Z" fill="#0055B8"/>
<path d="M35.9314 30.1138C35.5671 30.1138 35.2715 30.4094 35.2715 30.7737C35.2715 31.138 35.5671 31.4337 35.9314 31.4337C36.2957 31.4337 36.5914 31.138 36.5914 30.7737C36.5932 30.4094 36.2975 30.1138 35.9314 30.1138Z" fill="#0055B8"/>
<path d="M29.9341 34.5786C29.5698 34.5786 29.2742 34.8743 29.2742 35.2386C29.2742 35.6029 29.5698 35.8985 29.9341 35.8985C30.2984 35.8985 30.5941 35.6029 30.5941 35.2386C30.5941 34.8743 30.2984 34.5786 29.9341 34.5786Z" fill="#0055B8"/>
<path d="M29.9341 30.1138C29.5698 30.1138 29.2742 30.4094 29.2742 30.7737C29.2742 31.138 29.5698 31.4337 29.9341 31.4337C30.2984 31.4337 30.5941 31.138 30.5941 30.7737C30.5941 30.4094 30.2984 30.1138 29.9341 30.1138Z" fill="#0055B8"/>
<path d="M31.4332 27.8804C31.0689 27.8804 30.7732 28.176 30.7732 28.5403C30.7732 28.9046 31.0689 29.2003 31.4332 29.2003C31.7974 29.2003 32.0931 28.9046 32.0931 28.5403C32.0931 28.176 31.7974 27.8804 31.4332 27.8804Z" fill="#0055B8"/>
<path d="M31.4332 32.3452C31.0689 32.3452 30.7732 32.6409 30.7732 33.0052C30.7732 33.3695 31.0689 33.6651 31.4332 33.6651C31.7974 33.6651 32.0931 33.3695 32.0931 33.0052C32.0931 32.6409 31.7974 32.3452 31.4332 32.3452Z" fill="#0055B8"/>
<path d="M17.9363 34.5786C17.572 34.5786 17.2764 34.8743 17.2764 35.2386C17.2764 35.6029 17.572 35.8985 17.9363 35.8985C18.3006 35.8985 18.5963 35.6029 18.5963 35.2386C18.5963 34.8743 18.3006 34.5786 17.9363 34.5786Z" fill="#0055B8"/>
<path d="M13.4364 32.3452C13.0722 32.3452 12.7765 32.6409 12.7765 33.0052C12.7765 33.3695 13.0722 33.6651 13.4364 33.6651C13.8007 33.6651 14.0964 33.3695 14.0964 33.0052C14.0964 32.6409 13.8007 32.3452 13.4364 32.3452Z" fill="#0055B8"/>
<path d="M22.4346 32.3452C22.0703 32.3452 21.7747 32.6409 21.7747 33.0052C21.7747 33.3695 22.0703 33.6651 22.4346 33.6651C22.7989 33.6651 23.0946 33.3695 23.0946 33.0052C23.0946 32.6409 22.7989 32.3452 22.4346 32.3452Z" fill="#0055B8"/>
<path d="M13.4364 27.8804C13.0722 27.8804 12.7765 28.176 12.7765 28.5403C12.7765 28.9046 13.0722 29.2003 13.4364 29.2003C13.8007 29.2003 14.0964 28.9046 14.0964 28.5403C14.0982 28.176 13.8007 27.8804 13.4364 27.8804Z" fill="#0055B8"/>
<path d="M14.9357 30.1138C14.5714 30.1138 14.2758 30.4094 14.2758 30.7737C14.2758 31.138 14.5714 31.4337 14.9357 31.4337C15.3 31.4337 15.5957 31.138 15.5957 30.7737C15.5974 30.4094 15.3018 30.1138 14.9357 30.1138Z" fill="#0055B8"/>
<path d="M20.0958 37.4717C20.0958 37.1074 19.8001 36.8118 19.4358 36.8118C19.0715 36.8118 18.7759 37.1074 18.7759 37.4717C18.7759 37.6108 18.8199 37.741 18.8938 37.8483C19.1349 37.9381 19.3795 38.0243 19.6259 38.1018C19.8969 38.019 20.0958 37.7691 20.0958 37.4717Z" fill="#0055B8"/>
<path d="M15.598 35.2386C15.598 34.8743 15.3024 34.5786 14.9381 34.5786C14.6371 34.5786 14.3872 34.781 14.3063 35.0538C14.6055 35.323 14.917 35.58 15.2373 35.8246C15.4502 35.7155 15.598 35.4955 15.598 35.2386Z" fill="#0055B8"/>
<path d="M29.0946 37.4717C29.0946 37.1074 28.7989 36.8118 28.4346 36.8118C28.0703 36.8118 27.7747 37.1074 27.7747 37.4717C27.7747 37.7691 27.9735 38.019 28.2445 38.1018C28.4927 38.0243 28.7356 37.9381 28.9767 37.8483C29.0506 37.741 29.0946 37.6108 29.0946 37.4717Z" fill="#0055B8"/>
<path d="M36.7708 28.5421C36.7708 28.9064 37.0664 29.202 37.4307 29.202C37.4465 29.202 37.4606 29.1985 37.4765 29.1968C37.612 28.8131 37.7352 28.4224 37.839 28.0247C37.7264 27.9367 37.5856 27.8804 37.4325 27.8804C37.0664 27.8804 36.7708 28.176 36.7708 28.5421Z" fill="#0055B8"/>
<path d="M32.9332 34.5786C32.5689 34.5786 32.2732 34.8743 32.2732 35.2386C32.2732 35.4955 32.421 35.7155 32.634 35.8246C32.9543 35.58 33.2658 35.3248 33.565 35.0538C33.484 34.7792 33.2341 34.5786 32.9332 34.5786Z" fill="#0055B8"/>
<path d="M24.5963 35.2386C24.5963 34.8743 24.3006 34.5786 23.9363 34.5786C23.572 34.5786 23.2764 34.8743 23.2764 35.2386C23.2764 35.6029 23.572 35.8985 23.9363 35.8985C24.2989 35.9003 24.5963 35.6046 24.5963 35.2386Z" fill="#0055B8"/>
<path d="M11.0977 28.5423C11.0977 28.178 10.8021 27.8823 10.4378 27.8823C10.2829 27.8823 10.1439 27.9369 10.0312 28.0266C10.1351 28.4244 10.2565 28.8151 10.3938 29.1987C10.4096 29.2005 10.4237 29.204 10.4395 29.204C10.8021 29.2022 11.0977 28.9066 11.0977 28.5423Z" fill="#0055B8"/>
<path d="M11.9374 30.1138C11.5731 30.1138 11.2775 30.4094 11.2775 30.7737C11.2775 31.138 11.5731 31.4337 11.9374 31.4337C12.3017 31.4337 12.5974 31.138 12.5974 30.7737C12.5974 30.4094 12.3017 30.1138 11.9374 30.1138Z" fill="#0055B8"/>
<path d="M20.9358 34.5786C20.5715 34.5786 20.2759 34.8743 20.2759 35.2386C20.2759 35.6029 20.5715 35.8985 20.9358 35.8985C21.3001 35.8985 21.5958 35.6029 21.5958 35.2386C21.5958 34.8743 21.3001 34.5786 20.9358 34.5786Z" fill="#0055B8"/>
<path d="M22.4346 36.8101C22.0703 36.8101 21.7747 37.1057 21.7747 37.47C21.7747 37.8343 22.0703 38.13 22.4346 38.13C22.7989 38.13 23.0946 37.8343 23.0946 37.47C23.0946 37.1075 22.7989 36.8101 22.4346 36.8101Z" fill="#0055B8"/>
<path d="M16.4357 27.8804C16.0714 27.8804 15.7758 28.176 15.7758 28.5403C15.7758 28.9046 16.0714 29.2003 16.4357 29.2003C16.8 29.2003 17.0957 28.9046 17.0957 28.5403C17.0974 28.176 16.8018 27.8804 16.4357 27.8804Z" fill="#0055B8"/>
<path d="M16.4357 32.3452C16.0714 32.3452 15.7758 32.6409 15.7758 33.0052C15.7758 33.3695 16.0714 33.6651 16.4357 33.6651C16.8 33.6651 17.0957 33.3695 17.0957 33.0052C17.0957 32.6409 16.8018 32.3452 16.4357 32.3452Z" fill="#0055B8"/>
<path d="M19.4358 33.6668C19.8003 33.6668 20.0958 33.3714 20.0958 33.0069C20.0958 32.6424 19.8003 32.3469 19.4358 32.3469C19.0714 32.3469 18.7759 32.6424 18.7759 33.0069C18.7759 33.3714 19.0714 33.6668 19.4358 33.6668Z" fill="#0055B8"/>
<path d="M17.9363 31.4337C18.3008 31.4337 18.5963 31.1382 18.5963 30.7737C18.5963 30.4092 18.3008 30.1138 17.9363 30.1138C17.5718 30.1138 17.2764 30.4092 17.2764 30.7737C17.2764 31.1382 17.5718 31.4337 17.9363 31.4337Z" fill="#0055B8"/>
</svg>
