<svg width="48" height="48" viewBox="0 0 48 48" fill="none" xmlns="http://www.w3.org/2000/svg">
<path d="M23.8704 38.436C31.8065 38.436 38.2399 32.0025 38.2399 24.0665C38.2399 16.1305 31.8065 9.69702 23.8704 9.69702C15.9344 9.69702 9.50098 16.1305 9.50098 24.0665C9.50098 32.0025 15.9344 38.436 23.8704 38.436Z" stroke="#0055B8" stroke-width="0.879943" stroke-miterlimit="10"/>
<path d="M24.4032 24.019C25.1318 25.0979 24.3592 26.5533 23.0569 26.5533L24.4032 24.019Z" fill="white"/>
<path d="M24.4032 24.019C25.1318 25.0979 24.3592 26.5533 23.0569 26.5533" stroke="#0055B8" stroke-width="0.879943" stroke-miterlimit="10" stroke-linecap="round" stroke-linejoin="round"/>
<path d="M26.9291 28.8464C25.2396 30.5359 22.503 30.5359 20.8135 28.8464" stroke="#0055B8" stroke-width="0.879943" stroke-miterlimit="10" stroke-linecap="round" stroke-linejoin="round"/>
<path d="M20.7165 21.4566C20.7165 21.8978 20.3588 22.2556 19.9175 22.2556C19.4762 22.2556 19.1185 21.8978 19.1185 21.4566C19.1185 21.0153 19.4762 20.6576 19.9175 20.6576C20.3588 20.6576 20.7165 21.0153 20.7165 21.4566Z" fill="#0055B8" stroke="#0055B8" stroke-width="0.175989"/>
<path d="M28.6242 21.4566C28.6242 21.8978 28.2665 22.2556 27.8252 22.2556C27.3839 22.2556 27.0262 21.8978 27.0262 21.4566C27.0262 21.0153 27.3839 20.6576 27.8252 20.6576C28.2665 20.6576 28.6242 21.0153 28.6242 21.4566Z" fill="#0055B8" stroke="#0055B8" stroke-width="0.175989"/>
<path opacity="0.3" d="M23.8706 38.3481C17.2267 38.3481 11.644 33.8108 10.0491 27.6656H37.6938C36.0972 33.8108 30.5144 38.3481 23.8706 38.3481Z" fill="#0055B8" stroke="#0055B8" stroke-width="0.175989"/>
</svg>
