<svg width="48" height="48" viewBox="0 0 48 48" fill="none" xmlns="http://www.w3.org/2000/svg">
<path d="M8 10H15L19.0833 27.1429H36L38 15" stroke="#3A3A3A" stroke-width="1.5" stroke-linecap="round" stroke-linejoin="round"/>
<path d="M24.7507 34.2861C24.7507 35.9087 23.4035 37.2504 21.709 37.2504C20.0145 37.2504 18.6674 35.9087 18.6674 34.2861C18.6674 32.6634 20.0145 31.3218 21.709 31.3218C23.4035 31.3218 24.7507 32.6634 24.7507 34.2861Z" stroke="#3A3A3A" stroke-width="1.5"/>
<path d="M36.416 34.2861C36.416 35.9087 35.0688 37.2504 33.3743 37.2504C31.6798 37.2504 30.3326 35.9087 30.3326 34.2861C30.3326 32.6634 31.6798 31.3218 33.3743 31.3218C35.0688 31.3218 36.416 32.6634 36.416 34.2861Z" stroke="#3A3A3A" stroke-width="1.5"/>
</svg>
