<svg width="30" height="30" viewBox="0 0 30 30" fill="none" xmlns="http://www.w3.org/2000/svg">
<path d="M16.317 14.9219C17.0456 16.0007 16.273 17.4561 14.9707 17.4561L16.317 14.9219Z" fill="white"/>
<path d="M16.317 14.9219C17.0456 16.0007 16.273 17.4561 14.9707 17.4561" stroke="#0055B8" stroke-width="0.879943" stroke-miterlimit="10" stroke-linecap="round" stroke-linejoin="round"/>
<path d="M18.0273 19.7493C16.3379 21.4388 13.6012 21.4388 11.9117 19.7493" stroke="#0055B8" stroke-width="0.879943" stroke-miterlimit="10" stroke-linecap="round" stroke-linejoin="round"/>
<path d="M11.0154 13.2466C11.5053 13.2466 11.9024 12.8495 11.9024 12.3596C11.9024 11.8698 11.5053 11.4727 11.0154 11.4727C10.5255 11.4727 10.1284 11.8698 10.1284 12.3596C10.1284 12.8495 10.5255 13.2466 11.0154 13.2466Z" fill="#0055B8"/>
<path d="M18.9232 13.2466C19.4131 13.2466 19.8102 12.8495 19.8102 12.3596C19.8102 11.8698 19.4131 11.4727 18.9232 11.4727C18.4334 11.4727 18.0363 11.8698 18.0363 12.3596C18.0363 12.8495 18.4334 13.2466 18.9232 13.2466Z" fill="#0055B8"/>
<path d="M14.9694 29.339C22.9055 29.339 29.3389 22.9056 29.3389 14.9696C29.3389 7.03353 22.9055 0.600098 14.9694 0.600098C7.03341 0.600098 0.599976 7.03353 0.599976 14.9696C0.599976 22.9056 7.03341 29.339 14.9694 29.339Z" stroke="#0055B8" stroke-width="0.879943" stroke-miterlimit="10" stroke-linecap="round" stroke-linejoin="round"/>
</svg>
