<svg width="30" height="30" viewBox="0 0 30 30" fill="none" xmlns="http://www.w3.org/2000/svg">
<path opacity="0.3" d="M28.8687 18.5776H0.999146C2.56544 24.8164 8.2094 29.4361 14.9339 29.4361C21.6585 29.4361 27.3024 24.8164 28.8687 18.5776Z" fill="#0055B8"/>
<path d="M14.9333 29.436C22.8694 29.436 29.3028 23.0025 29.3028 15.0665C29.3028 7.13045 22.8694 0.697021 14.9333 0.697021C6.99727 0.697021 0.563843 7.13045 0.563843 15.0665C0.563843 23.0025 6.99727 29.436 14.9333 29.436Z" stroke="#0055B8" stroke-width="0.879943" stroke-miterlimit="10"/>
<path d="M15.4672 15.019C16.1958 16.0979 15.4232 17.5533 14.1208 17.5533L15.4672 15.019Z" fill="white"/>
<path d="M15.4672 15.019C16.1958 16.0979 15.4232 17.5533 14.1208 17.5533" stroke="#0055B8" stroke-width="0.879943" stroke-miterlimit="10" stroke-linecap="round" stroke-linejoin="round"/>
<path d="M17.9923 19.8464C16.3028 21.5359 13.5662 21.5359 11.8767 19.8464" stroke="#0055B8" stroke-width="0.879943" stroke-miterlimit="10" stroke-linecap="round" stroke-linejoin="round"/>
<path d="M10.9815 13.3435C11.4713 13.3435 11.8685 12.9464 11.8685 12.4566C11.8685 11.9667 11.4713 11.5696 10.9815 11.5696C10.4916 11.5696 10.0945 11.9667 10.0945 12.4566C10.0945 12.9464 10.4916 13.3435 10.9815 13.3435Z" fill="#0055B8"/>
<path d="M18.8887 13.3435C19.3786 13.3435 19.7757 12.9464 19.7757 12.4566C19.7757 11.9667 19.3786 11.5696 18.8887 11.5696C18.3988 11.5696 18.0017 11.9667 18.0017 12.4566C18.0017 12.9464 18.3988 13.3435 18.8887 13.3435Z" fill="#0055B8"/>
<path d="M19.4346 23.3452C19.0703 23.3452 18.7747 23.6409 18.7747 24.0052C18.7747 24.3695 19.0703 24.6651 19.4346 24.6651C19.7989 24.6651 20.0946 24.3695 20.0946 24.0052C20.0946 23.6409 19.7989 23.3452 19.4346 23.3452Z" fill="#0055B8"/>
<path d="M16.4341 27.8101C16.0698 27.8101 15.7742 28.1057 15.7742 28.47C15.7742 28.8343 16.0698 29.13 16.4341 29.13C16.7984 29.13 17.0941 28.8343 17.0941 28.47C17.0958 28.1075 16.8002 27.8101 16.4341 27.8101Z" fill="#0055B8"/>
<path d="M16.4341 23.3452C16.0698 23.3452 15.7742 23.6409 15.7742 24.0052C15.7742 24.3695 16.0698 24.6651 16.4341 24.6651C16.7984 24.6651 17.0941 24.3695 17.0941 24.0052C17.0941 23.6409 16.8002 23.3452 16.4341 23.3452Z" fill="#0055B8"/>
<path d="M17.9332 25.5786C17.5689 25.5786 17.2732 25.8743 17.2732 26.2386C17.2732 26.6029 17.5689 26.8985 17.9332 26.8985C18.2974 26.8985 18.5931 26.6029 18.5931 26.2386C18.5949 25.8743 18.2992 25.5786 17.9332 25.5786Z" fill="#0055B8"/>
<path d="M25.4324 24.6668C25.7969 24.6668 26.0924 24.3714 26.0924 24.0069C26.0924 23.6424 25.7969 23.3469 25.4324 23.3469C25.0679 23.3469 24.7725 23.6424 24.7725 24.0069C24.7725 24.3714 25.0679 24.6668 25.4324 24.6668Z" fill="#0055B8"/>
<path d="M25.4324 18.8804C25.0681 18.8804 24.7725 19.176 24.7725 19.5403C24.7725 19.9046 25.0681 20.2003 25.4324 20.2003C25.7967 20.2003 26.0924 19.9046 26.0924 19.5403C26.0941 19.176 25.7967 18.8804 25.4324 18.8804Z" fill="#0055B8"/>
<path d="M23.9332 21.1138C23.5689 21.1138 23.2732 21.4094 23.2732 21.7737C23.2732 22.138 23.5689 22.4337 23.9332 22.4337C24.2974 22.4337 24.5931 22.138 24.5931 21.7737C24.5931 21.4094 24.2974 21.1138 23.9332 21.1138Z" fill="#0055B8"/>
<path d="M26.9314 21.1138C26.5671 21.1138 26.2715 21.4094 26.2715 21.7737C26.2715 22.138 26.5671 22.4337 26.9314 22.4337C27.2957 22.4337 27.5914 22.138 27.5914 21.7737C27.5932 21.4094 27.2975 21.1138 26.9314 21.1138Z" fill="#0055B8"/>
<path d="M20.9341 25.5786C20.5698 25.5786 20.2742 25.8743 20.2742 26.2386C20.2742 26.6029 20.5698 26.8985 20.9341 26.8985C21.2984 26.8985 21.5941 26.6029 21.5941 26.2386C21.5941 25.8743 21.2984 25.5786 20.9341 25.5786Z" fill="#0055B8"/>
<path d="M20.9341 21.1138C20.5698 21.1138 20.2742 21.4094 20.2742 21.7737C20.2742 22.138 20.5698 22.4337 20.9341 22.4337C21.2984 22.4337 21.5941 22.138 21.5941 21.7737C21.5941 21.4094 21.2984 21.1138 20.9341 21.1138Z" fill="#0055B8"/>
<path d="M22.4332 18.8804C22.0689 18.8804 21.7732 19.176 21.7732 19.5403C21.7732 19.9046 22.0689 20.2003 22.4332 20.2003C22.7974 20.2003 23.0931 19.9046 23.0931 19.5403C23.0931 19.176 22.7974 18.8804 22.4332 18.8804Z" fill="#0055B8"/>
<path d="M22.4332 23.3452C22.0689 23.3452 21.7732 23.6409 21.7732 24.0052C21.7732 24.3695 22.0689 24.6651 22.4332 24.6651C22.7974 24.6651 23.0931 24.3695 23.0931 24.0052C23.0931 23.6409 22.7974 23.3452 22.4332 23.3452Z" fill="#0055B8"/>
<path d="M8.93632 25.5786C8.57203 25.5786 8.27637 25.8743 8.27637 26.2386C8.27637 26.6029 8.57203 26.8985 8.93632 26.8985C9.30062 26.8985 9.59628 26.6029 9.59628 26.2386C9.59628 25.8743 9.30062 25.5786 8.93632 25.5786Z" fill="#0055B8"/>
<path d="M4.43645 23.3452C4.07215 23.3452 3.77649 23.6409 3.77649 24.0052C3.77649 24.3695 4.07215 24.6651 4.43645 24.6651C4.80074 24.6651 5.0964 24.3695 5.0964 24.0052C5.0964 23.6409 4.80074 23.3452 4.43645 23.3452Z" fill="#0055B8"/>
<path d="M13.4346 23.3452C13.0703 23.3452 12.7747 23.6409 12.7747 24.0052C12.7747 24.3695 13.0703 24.6651 13.4346 24.6651C13.7989 24.6651 14.0946 24.3695 14.0946 24.0052C14.0946 23.6409 13.7989 23.3452 13.4346 23.3452Z" fill="#0055B8"/>
<path d="M4.43645 18.8804C4.07215 18.8804 3.77649 19.176 3.77649 19.5403C3.77649 19.9046 4.07215 20.2003 4.43645 20.2003C4.80074 20.2003 5.0964 19.9046 5.0964 19.5403C5.09816 19.176 4.80074 18.8804 4.43645 18.8804Z" fill="#0055B8"/>
<path d="M5.93571 21.1138C5.57142 21.1138 5.27576 21.4094 5.27576 21.7737C5.27576 22.138 5.57142 22.4337 5.93571 22.4337C6.30001 22.4337 6.59567 22.138 6.59567 21.7737C6.59743 21.4094 6.30177 21.1138 5.93571 21.1138Z" fill="#0055B8"/>
<path d="M11.0958 28.4717C11.0958 28.1074 10.8001 27.8118 10.4358 27.8118C10.0715 27.8118 9.77588 28.1074 9.77588 28.4717C9.77588 28.6108 9.81987 28.741 9.89379 28.8483C10.1349 28.9381 10.3795 29.0243 10.6259 29.1018C10.8969 29.019 11.0958 28.7691 11.0958 28.4717Z" fill="#0055B8"/>
<path d="M6.59803 26.2386C6.59803 25.8743 6.30236 25.5786 5.93807 25.5786C5.63713 25.5786 5.38723 25.781 5.30627 26.0538C5.60546 26.323 5.91695 26.58 6.23725 26.8246C6.4502 26.7155 6.59803 26.4955 6.59803 26.2386Z" fill="#0055B8"/>
<path d="M20.0946 28.4717C20.0946 28.1074 19.7989 27.8118 19.4346 27.8118C19.0703 27.8118 18.7747 28.1074 18.7747 28.4717C18.7747 28.7691 18.9735 29.019 19.2445 29.1018C19.4927 29.0243 19.7356 28.9381 19.9767 28.8483C20.0506 28.741 20.0946 28.6108 20.0946 28.4717Z" fill="#0055B8"/>
<path d="M27.7708 19.5421C27.7708 19.9064 28.0664 20.202 28.4307 20.202C28.4465 20.202 28.4606 20.1985 28.4765 20.1968C28.612 19.8131 28.7352 19.4224 28.839 19.0247C28.7264 18.9367 28.5856 18.8804 28.4325 18.8804C28.0664 18.8804 27.7708 19.176 27.7708 19.5421Z" fill="#0055B8"/>
<path d="M23.9332 25.5786C23.5689 25.5786 23.2732 25.8743 23.2732 26.2386C23.2732 26.4955 23.421 26.7155 23.634 26.8246C23.9543 26.58 24.2658 26.3248 24.565 26.0538C24.484 25.7792 24.2341 25.5786 23.9332 25.5786Z" fill="#0055B8"/>
<path d="M15.5963 26.2386C15.5963 25.8743 15.3006 25.5786 14.9363 25.5786C14.572 25.5786 14.2764 25.8743 14.2764 26.2386C14.2764 26.6029 14.572 26.8985 14.9363 26.8985C15.2989 26.9003 15.5963 26.6046 15.5963 26.2386Z" fill="#0055B8"/>
<path d="M2.09774 19.5423C2.09774 19.178 1.80208 18.8823 1.43778 18.8823C1.28291 18.8823 1.14388 18.9369 1.03125 19.0266C1.13508 19.4244 1.25652 19.8151 1.39379 20.1987C1.40963 20.2005 1.42371 20.204 1.43954 20.204C1.80208 20.2022 2.09774 19.9066 2.09774 19.5423Z" fill="#0055B8"/>
<path d="M2.93742 21.1138C2.57313 21.1138 2.27747 21.4094 2.27747 21.7737C2.27747 22.138 2.57313 22.4337 2.93742 22.4337C3.30172 22.4337 3.59738 22.138 3.59738 21.7737C3.59738 21.4094 3.30172 21.1138 2.93742 21.1138Z" fill="#0055B8"/>
<path d="M11.9358 25.5786C11.5715 25.5786 11.2759 25.8743 11.2759 26.2386C11.2759 26.6029 11.5715 26.8985 11.9358 26.8985C12.3001 26.8985 12.5958 26.6029 12.5958 26.2386C12.5958 25.8743 12.3001 25.5786 11.9358 25.5786Z" fill="#0055B8"/>
<path d="M13.4346 27.8101C13.0703 27.8101 12.7747 28.1057 12.7747 28.47C12.7747 28.8343 13.0703 29.13 13.4346 29.13C13.7989 29.13 14.0946 28.8343 14.0946 28.47C14.0946 28.1075 13.7989 27.8101 13.4346 27.8101Z" fill="#0055B8"/>
<path d="M7.43571 18.8804C7.07142 18.8804 6.77576 19.176 6.77576 19.5403C6.77576 19.9046 7.07142 20.2003 7.43571 20.2003C7.80001 20.2003 8.09567 19.9046 8.09567 19.5403C8.09743 19.176 7.80177 18.8804 7.43571 18.8804Z" fill="#0055B8"/>
<path d="M7.43571 23.3452C7.07142 23.3452 6.77576 23.6409 6.77576 24.0052C6.77576 24.3695 7.07142 24.6651 7.43571 24.6651C7.80001 24.6651 8.09567 24.3695 8.09567 24.0052C8.09567 23.6409 7.80177 23.3452 7.43571 23.3452Z" fill="#0055B8"/>
<path d="M10.4358 24.6668C10.8003 24.6668 11.0958 24.3714 11.0958 24.0069C11.0958 23.6424 10.8003 23.3469 10.4358 23.3469C10.0714 23.3469 9.77588 23.6424 9.77588 24.0069C9.77588 24.3714 10.0714 24.6668 10.4358 24.6668Z" fill="#0055B8"/>
<path d="M8.93632 22.4337C9.30081 22.4337 9.59628 22.1382 9.59628 21.7737C9.59628 21.4092 9.30081 21.1138 8.93632 21.1138C8.57184 21.1138 8.27637 21.4092 8.27637 21.7737C8.27637 22.1382 8.57184 22.4337 8.93632 22.4337Z" fill="#0055B8"/>
</svg>
